<?xml version="1.0" encoding="utf-8"?>
<!-- Generator: Adobe Illustrator 27.2.0, SVG Export Plug-In . SVG Version: 6.00 Build 0)  -->
<svg version="1.1" id="Layer_1" xmlns="http://www.w3.org/2000/svg" xmlns:xlink="http://www.w3.org/1999/xlink" x="0px" y="0px"
	 viewBox="0 0 169.9 44.5" style="enable-background:new 0 0 169.9 44.5;" xml:space="preserve">
<style type="text/css">
	.st0{fill:#FFFFFF;}
</style>
<g>
	<path class="st0" d="M13.4,29.5V14.8h7.5c1.9,0,3.4,0.4,4.3,1.1c1,0.7,1.4,1.6,1.4,2.8c0,0.8-0.2,1.4-0.6,2s-1,1-1.7,1.3
		s-1.6,0.5-2.6,0.5l0.4-1c1,0,1.9,0.2,2.7,0.5c0.8,0.3,1.4,0.8,1.8,1.4c0.4,0.6,0.6,1.3,0.6,2.2c0,1.3-0.5,2.3-1.5,3
		c-1,0.7-2.5,1.1-4.5,1.1H13.4z M17.5,26.5H21c0.7,0,1.3-0.1,1.6-0.4c0.4-0.2,0.6-0.6,0.6-1.1s-0.2-0.9-0.6-1.1
		c-0.4-0.2-0.9-0.4-1.6-0.4h-3.8v-2.9h3.1c0.7,0,1.2-0.1,1.6-0.4c0.3-0.2,0.5-0.6,0.5-1.1c0-0.5-0.2-0.8-0.5-1.1
		c-0.4-0.2-0.9-0.3-1.6-0.3h-2.9V26.5z"/>
	<path class="st0" d="M29.6,29.5V14.8h4.2v11.4h7v3.3H29.6z"/>
	<path class="st0" d="M49.5,29.8c-1.2,0-2.3-0.2-3.3-0.6s-1.9-0.9-2.6-1.6C43,27,42.4,26.1,42,25.2c-0.4-0.9-0.6-1.9-0.6-3
		c0-1.1,0.2-2.1,0.6-3c0.4-0.9,1-1.7,1.7-2.4c0.7-0.7,1.6-1.2,2.6-1.6c1-0.4,2.1-0.6,3.3-0.6c1.2,0,2.3,0.2,3.3,0.6
		c1,0.4,1.8,0.9,2.6,1.6c0.7,0.7,1.3,1.5,1.7,2.4c0.4,0.9,0.6,1.9,0.6,3c0,1.1-0.2,2.1-0.6,3.1c-0.4,0.9-1,1.7-1.7,2.4
		c-0.7,0.7-1.6,1.2-2.6,1.6C51.8,29.6,50.7,29.8,49.5,29.8z M49.5,26.4c0.6,0,1.1-0.1,1.6-0.3c0.5-0.2,0.9-0.5,1.3-0.9
		s0.6-0.8,0.8-1.3c0.2-0.5,0.3-1.1,0.3-1.7c0-0.6-0.1-1.2-0.3-1.7c-0.2-0.5-0.5-1-0.8-1.3s-0.8-0.7-1.3-0.9c-0.5-0.2-1-0.3-1.6-0.3
		s-1.1,0.1-1.6,0.3c-0.5,0.2-0.9,0.5-1.3,0.9s-0.6,0.8-0.8,1.3c-0.2,0.5-0.3,1.1-0.3,1.7c0,0.6,0.1,1.2,0.3,1.7
		c0.2,0.5,0.5,1,0.8,1.3s0.8,0.7,1.3,0.9S49,26.4,49.5,26.4z"/>
	<path class="st0" d="M67.2,29.8c-1.2,0-2.2-0.2-3.2-0.6c-1-0.4-1.8-0.9-2.6-1.6c-0.7-0.7-1.3-1.5-1.7-2.4c-0.4-0.9-0.6-2-0.6-3.1
		c0-1.1,0.2-2.1,0.6-3.1c0.4-0.9,1-1.7,1.7-2.4c0.7-0.7,1.6-1.2,2.6-1.6c1-0.4,2.1-0.6,3.2-0.6c1.4,0,2.6,0.2,3.6,0.7
		c1.1,0.5,2,1.2,2.7,2.1l-2.6,2.4c-0.5-0.6-1-1-1.6-1.3c-0.6-0.3-1.2-0.4-1.9-0.4c-0.6,0-1.2,0.1-1.7,0.3c-0.5,0.2-0.9,0.5-1.3,0.9
		s-0.6,0.8-0.8,1.3c-0.2,0.5-0.3,1.1-0.3,1.7s0.1,1.2,0.3,1.7c0.2,0.5,0.5,1,0.8,1.3s0.8,0.7,1.3,0.9s1.1,0.3,1.7,0.3
		c0.7,0,1.3-0.1,1.9-0.4c0.6-0.3,1.1-0.7,1.6-1.3l2.6,2.4c-0.7,0.9-1.6,1.6-2.7,2C69.8,29.6,68.6,29.8,67.2,29.8z"/>
	<path class="st0" d="M75.4,29.5V14.8h4.1v14.7H75.4z M79.1,26.3l-0.2-4.7l6.3-6.8h4.6l-6.3,6.8l-2.3,2.4L79.1,26.3z M85.3,29.5
		l-4.8-6.1l2.7-2.9l6.9,9H85.3z"/>
	<path class="st0" d="M91.2,29.5V14.8h6.7c1.3,0,2.5,0.2,3.5,0.7c1,0.4,1.7,1.1,2.3,1.9s0.8,1.8,0.8,2.9c0,1.1-0.3,2.1-0.8,2.9
		c-0.5,0.8-1.3,1.4-2.3,1.8c-1,0.4-2.1,0.6-3.5,0.6h-4.4l1.8-1.7v5.6H91.2z M95.3,24.3l-1.8-1.9h4.2c0.9,0,1.5-0.2,1.9-0.6
		c0.4-0.4,0.6-0.9,0.6-1.6c0-0.7-0.2-1.2-0.6-1.6c-0.4-0.4-1.1-0.6-1.9-0.6h-4.2l1.8-1.9V24.3z M100.3,29.5l-3.7-5.4h4.4l3.7,5.4
		H100.3z"/>
	<path class="st0" d="M114.1,29.8c-1.2,0-2.3-0.2-3.3-0.6s-1.9-0.9-2.6-1.6c-0.7-0.7-1.3-1.5-1.7-2.4c-0.4-0.9-0.6-1.9-0.6-3
		c0-1.1,0.2-2.1,0.6-3c0.4-0.9,1-1.7,1.7-2.4c0.7-0.7,1.6-1.2,2.6-1.6c1-0.4,2.1-0.6,3.3-0.6c1.2,0,2.3,0.2,3.3,0.6
		c1,0.4,1.8,0.9,2.6,1.6c0.7,0.7,1.3,1.5,1.7,2.4s0.6,1.9,0.6,3c0,1.1-0.2,2.1-0.6,3.1c-0.4,0.9-1,1.7-1.7,2.4
		c-0.7,0.7-1.6,1.2-2.6,1.6S115.3,29.8,114.1,29.8z M114.1,26.4c0.6,0,1.1-0.1,1.6-0.3c0.5-0.2,0.9-0.5,1.3-0.9
		c0.4-0.4,0.6-0.8,0.8-1.3c0.2-0.5,0.3-1.1,0.3-1.7c0-0.6-0.1-1.2-0.3-1.7c-0.2-0.5-0.5-1-0.8-1.3c-0.4-0.4-0.8-0.7-1.3-0.9
		c-0.5-0.2-1-0.3-1.6-0.3s-1.1,0.1-1.6,0.3c-0.5,0.2-0.9,0.5-1.3,0.9c-0.4,0.4-0.6,0.8-0.8,1.3c-0.2,0.5-0.3,1.1-0.3,1.7
		c0,0.6,0.1,1.2,0.3,1.7c0.2,0.5,0.5,1,0.8,1.3c0.4,0.4,0.8,0.7,1.3,0.9C113.1,26.3,113.6,26.4,114.1,26.4z"/>
	<path class="st0" d="M131.8,29.8c-1.2,0-2.2-0.2-3.2-0.6c-1-0.4-1.8-0.9-2.6-1.6c-0.7-0.7-1.3-1.5-1.7-2.4c-0.4-0.9-0.6-2-0.6-3.1
		c0-1.1,0.2-2.1,0.6-3.1c0.4-0.9,1-1.7,1.7-2.4c0.7-0.7,1.6-1.2,2.6-1.6c1-0.4,2.1-0.6,3.2-0.6c1.4,0,2.6,0.2,3.6,0.7s2,1.2,2.7,2.1
		l-2.6,2.4c-0.5-0.6-1-1-1.6-1.3c-0.6-0.3-1.2-0.4-1.9-0.4c-0.6,0-1.2,0.1-1.7,0.3c-0.5,0.2-0.9,0.5-1.3,0.9
		c-0.4,0.4-0.6,0.8-0.8,1.3c-0.2,0.5-0.3,1.1-0.3,1.7s0.1,1.2,0.3,1.7c0.2,0.5,0.5,1,0.8,1.3c0.4,0.4,0.8,0.7,1.3,0.9
		s1.1,0.3,1.7,0.3c0.7,0,1.3-0.1,1.9-0.4c0.6-0.3,1.1-0.7,1.6-1.3l2.6,2.4c-0.7,0.9-1.6,1.6-2.7,2C134.4,29.6,133.2,29.8,131.8,29.8
		z"/>
	<path class="st0" d="M140,29.5V14.8h4.1v14.7H140z M143.7,26.3l-0.2-4.7l6.3-6.8h4.6l-6.3,6.8l-2.3,2.4L143.7,26.3z M149.9,29.5
		l-4.8-6.1l2.7-2.9l6.9,9H149.9z"/>
	<path class="st0" d="M157.3,29.7c-0.7,0-1.2-0.2-1.7-0.7s-0.7-1-0.7-1.7c0-0.7,0.2-1.3,0.7-1.7c0.5-0.4,1-0.6,1.7-0.6
		s1.2,0.2,1.7,0.6c0.5,0.4,0.7,1,0.7,1.7c0,0.7-0.2,1.3-0.7,1.7S157.9,29.7,157.3,29.7z"/>
</g>
</svg>
